<svg width="64" height="64" viewBox="0 0 64 64" fill="none" xmlns="http://www.w3.org/2000/svg">
<path d="M44.1875 48.3281C44.625 48.3281 44.9531 48.4375 45.1719 48.6562C45.4219 48.8438 45.5469 49.1094 45.5469 49.4531C45.5469 49.8281 45.4531 50.125 45.2656 50.3438C45.0781 50.5625 44.8281 50.7188 44.5156 50.8125C44.2344 50.9062 43.9062 50.9688 43.5312 51C43.1875 51 42.8438 51 42.5 51C40.9375 51 39.4219 50.7812 37.9531 50.3438C36.5156 49.875 35.2344 49.2031 34.1094 48.3281C33.0156 47.4531 32.1406 46.3594 31.4844 45.0469C30.8281 43.7344 30.5 42.2031 30.5 40.4531C30.5 38.2031 30.9688 36.2812 31.9062 34.6875C32.875 33.0625 34.0625 31.7188 35.4688 30.6562C36.9062 29.5938 38.4375 28.7969 40.0625 28.2656C41.7188 27.7031 43.25 27.3594 44.6562 27.2344C45.2188 27.2344 45.6094 27.375 45.8281 27.6562C46.0469 27.9375 46.1562 28.2344 46.1562 28.5469C46.1562 29.3281 45.8125 29.7656 45.125 29.8594C43.8438 30.0469 42.5 30.3906 41.0938 30.8906C39.7188 31.3594 38.4531 32.0312 37.2969 32.9062C36.1406 33.7812 35.1875 34.8438 34.4375 36.0938C33.6875 37.3125 33.3125 38.7656 33.3125 40.4531C33.3125 41.8281 33.6094 43.0156 34.2031 44.0156C34.7969 45.0156 35.5625 45.8438 36.5 46.5C37.4375 47.125 38.4844 47.5938 39.6406 47.9062C40.8281 48.2188 42 48.375 43.1562 48.375C43.3125 48.375 43.4844 48.375 43.6719 48.375C43.8594 48.375 44.0312 48.3594 44.1875 48.3281Z" fill="#FF0000"/>
<path d="M44.25 49.3125C44.8333 49.3125 45.2708 49.4583 45.5625 49.75C45.8958 50 46.0625 50.3542 46.0625 50.8125C46.0625 51.3125 45.9375 51.7083 45.6875 52C45.4375 52.2917 45.1042 52.5 44.6875 52.625C44.3125 52.75 43.875 52.8333 43.375 52.875C42.9167 52.875 42.4583 52.875 42 52.875C39.9167 52.875 37.8958 52.5833 35.9375 52C34.0208 51.375 32.3125 50.4792 30.8125 49.3125C29.3542 48.1458 28.1875 46.6875 27.3125 44.9375C26.4375 43.1875 26 41.1458 26 38.8125C26 35.8125 26.625 33.25 27.875 31.125C29.1667 28.9583 30.75 27.1667 32.625 25.75C34.5417 24.3333 36.5833 23.2708 38.75 22.5625C40.9583 21.8125 43 21.3542 44.875 21.1875C45.625 21.1875 46.1458 21.375 46.4375 21.75C46.7292 22.125 46.875 22.5208 46.875 22.9375C46.875 23.9792 46.4167 24.5625 45.5 24.6875C43.7917 24.9375 42 25.3958 40.125 26.0625C38.2917 26.6875 36.6042 27.5833 35.0625 28.75C33.5208 29.9167 32.25 31.3333 31.25 33C30.25 34.625 29.75 36.5625 29.75 38.8125C29.75 40.6458 30.1458 42.2292 30.9375 43.5625C31.7292 44.8958 32.75 46 34 46.875C35.25 47.7083 36.6458 48.3333 38.1875 48.75C39.7708 49.1667 41.3333 49.375 42.875 49.375C43.0833 49.375 43.3125 49.375 43.5625 49.375C43.8125 49.375 44.0417 49.3542 44.25 49.3125Z" fill="black"/>
<path d="M46.375 53.2812C47.25 53.2812 47.9062 53.5 48.3438 53.9375C48.8438 54.3125 49.0938 54.8438 49.0938 55.5312C49.0938 56.2812 48.9062 56.875 48.5312 57.3125C48.1562 57.75 47.6562 58.0625 47.0312 58.25C46.4688 58.4375 45.8125 58.5625 45.0625 58.625C44.375 58.625 43.6875 58.625 43 58.625C39.875 58.625 36.8438 58.1875 33.9062 57.3125C31.0312 56.375 28.4688 55.0312 26.2188 53.2812C24.0312 51.5312 22.2812 49.3438 20.9688 46.7188C19.6562 44.0938 19 41.0312 19 37.5312C19 33.0312 19.9375 29.1875 21.8125 26C23.75 22.75 26.125 20.0625 28.9375 17.9375C31.8125 15.8125 34.875 14.2188 38.125 13.1562C41.4375 12.0312 44.5 11.3438 47.3125 11.0938C48.4375 11.0938 49.2188 11.375 49.6562 11.9375C50.0938 12.5 50.3125 13.0938 50.3125 13.7188C50.3125 15.2812 49.625 16.1562 48.25 16.3438C45.6875 16.7188 43 17.4062 40.1875 18.4062C37.4375 19.3438 34.9062 20.6875 32.5938 22.4375C30.2812 24.1875 28.375 26.3125 26.875 28.8125C25.375 31.25 24.625 34.1562 24.625 37.5312C24.625 40.2812 25.2188 42.6562 26.4062 44.6562C27.5938 46.6562 29.125 48.3125 31 49.625C32.875 50.875 34.9688 51.8125 37.2812 52.4375C39.6562 53.0625 42 53.375 44.3125 53.375C44.625 53.375 44.9688 53.375 45.3438 53.375C45.7188 53.375 46.0625 53.3438 46.375 53.2812Z" fill="#FF0000"/>
<path d="M47.5 56.25C48.6667 56.25 49.5417 56.5417 50.125 57.125C50.7917 57.625 51.125 58.3333 51.125 59.25C51.125 60.25 50.875 61.0417 50.375 61.625C49.875 62.2083 49.2083 62.625 48.375 62.875C47.625 63.125 46.75 63.2917 45.75 63.375C44.8333 63.375 43.9167 63.375 43 63.375C38.8333 63.375 34.7917 62.7917 30.875 61.625C27.0417 60.375 23.625 58.5833 20.625 56.25C17.7083 53.9167 15.375 51 13.625 47.5C11.875 44 11 39.9167 11 35.25C11 29.25 12.25 24.125 14.75 19.875C17.3333 15.5417 20.5 11.9583 24.25 9.125C28.0833 6.2917 32.1667 4.1667 36.5 2.75C40.9167 1.25 45 0.3333 48.75 0C50.25 0 51.2917 0.375 51.875 1.125C52.4583 1.875 52.75 2.6667 52.75 3.5C52.75 5.5833 51.8333 6.75 50 7C46.5833 7.5 43 8.4167 39.25 9.75C35.5833 11 32.2083 12.7917 29.125 15.125C26.0417 17.4583 23.5 20.2917 21.5 23.625C19.5 26.875 18.5 30.75 18.5 35.25C18.5 38.9167 19.2917 42.0833 20.875 44.75C22.4583 47.4167 24.5 49.625 27 51.375C29.5 53.0417 32.2917 54.2917 35.375 55.125C38.5417 55.9583 41.6667 56.375 44.75 56.375C45.1667 56.375 45.625 56.375 46.125 56.375C46.625 56.375 47.0833 56.3333 47.5 56.25Z" fill="black"/>
</svg>
